HIERARCHY
ROOT hip
{
  OFFSET 0 0 0
  CHANNELS 6 Xposition Yposition Zposition Zrotation Yrotation Xrotation
  JOINT abdomen
  {
    OFFSET 0 20.6881 -0.73152
    CHANNELS 3 Zrotation Xrotation Yrotation
    JOINT chest
    {
      OFFSET 0 11.7043 -0.48768
      CHANNELS 3 Zrotation Xrotation Yrotation
      JOINT neck
      {
        OFFSET 0 22.1894 -2.19456
        CHANNELS 3 Zrotation Xrotation Yrotation
        JOINT head
        {
          OFFSET -0.24384 7.07133 1.2192
          CHANNELS 3 Zrotation Xrotation Yrotation
          JOINT leftEye
          {
            OFFSET 4.14528 8.04674 8.04672
            CHANNELS 3 Zrotation Xrotation Yrotation
            End Site
            {
              OFFSET 1 0 0
            }
          }
          JOINT rightEye
          {
            OFFSET -3.6576 8.04674 8.04672
            CHANNELS 3 Zrotation Xrotation Yrotation
            End Site
            {
              OFFSET 1 0 0
            }
          }
        }
      }
      JOINT rCollar
      {
        OFFSET -2.68224 19.2634 -4.8768
        CHANNELS 3 Zrotation Xrotation Yrotation
        JOINT rShldr
        {
          OFFSET -8.77824 -1.95073 1.46304
          CHANNELS 3 Zrotation Xrotation Yrotation
          JOINT rForeArm
          {
            OFFSET -28.1742 -1.7115 0.48768
            CHANNELS 3 Zrotation Xrotation Yrotation
            JOINT rHand
            {
              OFFSET -22.5879 0.773209 7.07136
              CHANNELS 3 Zrotation Xrotation Yrotation
              JOINT rThumb1
              {
                OFFSET -1.2192 -0.487915 3.41376
                CHANNELS 3 Zrotation Xrotation Yrotation
                JOINT rThumb2
                {
                  OFFSET -3.37035 -0.52449 3.41376
                  CHANNELS 3 Zrotation Xrotation Yrotation
                  End Site
                  {
                    OFFSET -1.78271 -1.18214 1.43049
                  }
                }
              }
              JOINT rIndex1
              {
                OFFSET -7.75947 0.938293 5.60832
                CHANNELS 3 Zrotation Xrotation Yrotation
                JOINT rIndex2
                {
                  OFFSET -2.54057 -0.884171 1.56538
                  CHANNELS 3 Zrotation Xrotation Yrotation
                  End Site
                  {
                    OFFSET -1.62519 -0.234802 1.16502
                  }
                }
              }
              JOINT rMid1
              {
                OFFSET -8.24714 1.18213 3.41376
                CHANNELS 3 Zrotation Xrotation Yrotation
                JOINT rMid2
                {
                  OFFSET -3.10165 -0.590103 1.0647
                  CHANNELS 3 Zrotation Xrotation Yrotation
                  End Site
                  {
                    OFFSET -2.48547 -0.328903 0.83742
                  }
                }
              }
              JOINT rRing1
              {
                OFFSET -8.82822 0.546677 1.51678
                CHANNELS 3 Zrotation Xrotation Yrotation
                JOINT rRing2
                {
                  OFFSET -2.60934 -0.819778 -0.0198488
                  CHANNELS 3 Zrotation Xrotation Yrotation
                  End Site
                  {
                    OFFSET -2.33842 -0.294052 0.168128
                  }
                }
              }
              JOINT rPinky1
              {
                OFFSET -8.27202 -0.0477905 -0.4584
                CHANNELS 3 Zrotation Xrotation Yrotation
                JOINT rPinky2
                {
                  OFFSET -1.82734 -0.647385 -0.700984
                  CHANNELS 3 Zrotation Xrotation Yrotation
                  End Site
                  {
                    OFFSET -1.69225 -0.51767 -0.607171
                  }
                }
              }
            }
          }
        }
      }
      JOINT lCollar
      {
        OFFSET 2.68224 19.2634 -4.8768
        CHANNELS 3 Zrotation Xrotation Yrotation
        JOINT lShldr
        {
          OFFSET 8.77824 -1.95073 1.46304
          CHANNELS 3 Zrotation Xrotation Yrotation
          JOINT lForeArm
          {
            OFFSET 28.1742 -1.7115 0.48768
            CHANNELS 3 Zrotation Xrotation Yrotation
            JOINT lHand
            {
              OFFSET 22.5879 0.773209 7.07136
              CHANNELS 3 Zrotation Xrotation Yrotation
              JOINT lThumb1
              {
                OFFSET 1.2192 -0.487915 3.41376
                CHANNELS 3 Zrotation Xrotation Yrotation
                JOINT lThumb2
                {
                  OFFSET 3.37035 -0.52449 3.41376
                  CHANNELS 3 Zrotation Xrotation Yrotation
                  End Site
                  {
                    OFFSET 1.78271 -1.18214 1.43049
                  }
                }
              }
              JOINT lIndex1
              {
                OFFSET 7.75947 0.938293 5.60832
                CHANNELS 3 Zrotation Xrotation Yrotation
                JOINT lIndex2
                {
                  OFFSET 2.54057 -0.884171 1.56538
                  CHANNELS 3 Zrotation Xrotation Yrotation
                  End Site
                  {
                    OFFSET 1.62519 -0.234802 1.16502
                  }
                }
              }
              JOINT lMid1
              {
                OFFSET 8.24714 1.18213 3.41376
                CHANNELS 3 Zrotation Xrotation Yrotation
                JOINT lMid2
                {
                  OFFSET 3.10165 -0.590103 1.0647
                  CHANNELS 3 Zrotation Xrotation Yrotation
                  End Site
                  {
                    OFFSET 2.48547 -0.328903 0.83742
                  }
                }
              }
              JOINT lRing1
              {
                OFFSET 8.82822 0.546677 1.51678
                CHANNELS 3 Zrotation Xrotation Yrotation
                JOINT lRing2
                {
                  OFFSET 2.60934 -0.819778 -0.0198488
                  CHANNELS 3 Zrotation Xrotation Yrotation
                  End Site
                  {
                    OFFSET 2.33842 -0.294052 0.168128
                  }
                }
              }
              JOINT lPinky1
              {
                OFFSET 8.27202 -0.0477905 -0.4584
                CHANNELS 3 Zrotation Xrotation Yrotation
                JOINT lPinky2
                {
                  OFFSET 1.82734 -0.647385 -0.700984
                  CHANNELS 3 Zrotation Xrotation Yrotation
                  End Site
                  {
                    OFFSET 1.69225 -0.51767 -0.607171
                  }
                }
              }
            }
          }
        }
      }
    }
  }
  JOINT rButtock
  {
    OFFSET -8.77824 4.35084 1.2192
    CHANNELS 3 Zrotation Xrotation Yrotation
    JOINT rThigh
    {
      OFFSET 0 -1.70687 -2.19456
      CHANNELS 3 Zrotation Xrotation Yrotation
      JOINT rShin
      {
        OFFSET 0 -36.8199 0.73152
        CHANNELS 3 Zrotation Xrotation Yrotation
        JOINT rFoot
        {
          OFFSET 0.73152 -45.1104 -5.12064
          CHANNELS 3 Zrotation Xrotation Yrotation
          End Site
          {
            OFFSET -1.1221 -3.69964 12.103
          }
        }
      }
    }
  }
  JOINT lButtock
  {
    OFFSET 8.77824 4.35084 1.2192
    CHANNELS 3 Zrotation Xrotation Yrotation
    JOINT lThigh
    {
      OFFSET 0 -1.70687 -2.19456
      CHANNELS 3 Zrotation Xrotation Yrotation
      JOINT lShin
      {
        OFFSET 0 -36.8199 0.73152
        CHANNELS 3 Zrotation Xrotation Yrotation
        JOINT lFoot
        {
          OFFSET -0.73152 -45.1104 -5.12064
          CHANNELS 3 Zrotation Xrotation Yrotation
          End Site
          {
            OFFSET 1.1221 -3.69964 12.103
          }
        }
      }
    }
  }
}
MOTION
Frames:	4
Frame Time:	0.00833333
6.16068 106.836 7.35048 0.811 -2.0646 1.6881 2.04163 2.00043 2.23212 0.178721 -4.46317 0.676876 -7.94503 3.58938 -3.54628 10.3346 -17.9479 -3.69624 -0.0 0.0 0.0 -0.0 0.0 0.0 1.25105e-14 -1.54741e-15 1.0846e-13 8.8393 7.84999 11.4104 -26.2035 -23.9661 57.6806 -0.066153 7.22176 1.02059 1.77457e-10 -2.11704e-09 -5.15354e-10 3.03288e-10 -3.65163e-09 -8.8906e-10 1.77458e-10 -2.11703e-09 -5.15358e-10 7.73091 5.47488 0.417314 1.77455e-10 -2.11704e-09 -5.15357e-10 2.90554 0.965183 0.102902 1.77464e-10 -2.11704e-09 -5.15356e-10 10.2786 0.731801 0.0259123 1.77454e-10 -2.11704e-09 -5.15352e-10 2.22167 -0.733487 -0.20892 1.23454e-14 -1.5499e-15 1.08118e-13 -26.1442 15.1108 7.05533 26.3433 -45.6084 -94.7157 0.216196 -13.1522 1.88176 -2.06812e-10 4.21413e-09 -1.10996e-09 -3.47027e-10 7.27896e-09 -1.92097e-09 -2.06814e-10 4.21413e-09 -1.10995e-09 -7.73091 5.47488 -0.417314 -2.06811e-10 4.21412e-09 -1.10996e-09 -2.90554 0.965183 -0.102902 -2.06824e-10 4.21414e-09 -1.10996e-09 -10.2786 0.731801 -0.0259123 -2.06809e-10 4.21414e-09 -1.10997e-09 -2.22167 -0.733487 0.20892 -2.03217e-16 0.0 -3.88251e-19 1.06261 -6.2403 7.15539 -0.11832 21.3655 -0.0540529 5.76001 13.7983 -31.238 2.03217e-16 0.0 3.88251e-19 -0.187228 -2.4016 1.567 0.0792661 13.6075 0.0773492 -3.20609 11.9793 24.6186
6.20474 108.562 7.38059 1.0435 -1.6283 0.5992 1.50026 4.74172 1.80154 0.338851 -5.29853 0.566054 -8.03966 3.29767 -3.66199 10.78 -19.244 -3.68015 -0.0 0.0 0.0 -0.0 0.0 0.0 1.79656e-15 1.99426e-14 7.21185e-14 10.9714 7.26627 8.55457 -25.9344 -23.2554 56.6311 -0.0741177 7.59015 1.07338 -4.11313e-10 5.21223e-10 -2.38211e-10 -7.13129e-10 9.12915e-10 -4.06255e-10 -4.11309e-10 5.21227e-10 -2.38218e-10 7.73091 5.47488 0.417314 -4.11314e-10 5.21223e-10 -2.38215e-10 2.90554 0.965183 0.102902 -4.11305e-10 5.21224e-10 -2.38216e-10 10.2786 0.731801 0.0259123 -4.11318e-10 5.21225e-10 -2.38213e-10 2.22167 -0.733487 -0.20892 1.6761e-15 1.99382e-14 7.17892e-14 -28.1338 11.8033 10.476 26.8541 -44.1964 -92.2111 0.169541 -11.7 1.6676 8.70655e-11 3.85785e-09 -1.0572e-09 1.59393e-10 6.66306e-09 -1.82722e-09 8.70636e-11 3.85784e-09 -1.05719e-09 -7.73091 5.47488 -0.417314 8.70675e-11 3.85784e-09 -1.0572e-09 -2.90554 0.965183 -0.102902 8.70584e-11 3.85785e-09 -1.0572e-09 -10.2786 0.731801 -0.0259123 8.70671e-11 3.85786e-09 -1.05721e-09 -2.22167 -0.733487 0.20892 -2.03217e-16 0.0 -3.88251e-19 1.24538 -6.06208 6.23612 -0.146677 23.4285 -0.0658464 6.907 16.9115 -29.1402 2.03217e-16 0.0 3.88251e-19 -0.189322 -2.06013 2.6662 0.0979151 15.3143 0.103338 -4.61997 16.6625 21.9281
6.12905 110.259 7.3308 0.9247 -0.9392 -0.4564 0.971281 7.68201 1.30772 0.510978 -6.161 0.437261 -8.08825 2.97245 -3.75355 11.1785 -20.4391 -3.64079 -0.0 0.0 0.0 -0.0 0.0 0.0 -1.0834e-14 3.8171e-14 3.11009e-14 13.1733 6.41456 5.8366 -25.6312 -22.5073 55.4226 -0.0757746 7.69574 1.08845 -9.71056e-10 3.14025e-09 5.41816e-11 -1.67929e-09 5.44345e-09 1.02542e-10 -9.71048e-10 3.14025e-09 5.4171e-11 7.73091 5.47488 0.417314 -9.71056e-10 3.14024e-09 5.41755e-11 2.90554 0.965183 0.102902 -9.71047e-10 3.14025e-09 5.41741e-11 10.2786 0.731801 0.0259123 -9.71064e-10 3.14025e-09 5.41761e-11 2.22167 -0.733487 -0.20892 -1.09003e-14 3.81653e-14 3.07879e-14 -29.875 8.41705 13.4801 27.3564 -42.6064 -89.2606 0.134229 -10.3304 1.46838 3.7149e-10 3.28572e-09 -9.46415e-10 6.49091e-10 5.67409e-09 -1.63342e-09 3.71488e-10 3.28572e-09 -9.46408e-10 -7.73091 5.47488 -0.417314 3.71493e-10 3.28572e-09 -9.46416e-10 -2.90554 0.965183 -0.102902 3.71488e-10 3.28573e-09 -9.46418e-10 -10.2786 0.731801 -0.0259123 3.7149e-10 3.28573e-09 -9.46424e-10 -2.22167 -0.733487 0.20892 -2.03217e-16 0.0 -3.88251e-19 1.46714 -5.85693 5.69558 -0.17486 25.5116 -0.0693367 7.72984 19.735 -27.3482 2.03217e-16 0.0 3.88251e-19 -0.256219 -1.70522 3.40726 0.114929 17.0145 0.136343 -5.71376 21.8002 19.3056
6.02508 111.93 7.28077 0.8023 -0.216 -1.1618 0.49504 9.69244 0.895796 0.648759 -6.74546 0.325625 -7.99972 2.77246 -3.78153 11.2694 -21.0459 -3.62455 -0.0 0.0 0.0 -0.0 0.0 0.0 -2.52815e-14 4.61211e-14 -1.83876e-15 15.2576 5.74209 3.32404 -25.2556 -21.6557 53.8703 -0.0677739 7.40749 1.04695 -1.28636e-09 4.56668e-09 2.11733e-10 -2.22343e-09 7.91013e-09 3.76319e-10 -1.28635e-09 4.56667e-09 2.1172e-10 7.73091 5.47488 0.417314 -1.28636e-09 4.56667e-09 2.11726e-10 2.90554 0.965183 0.102902 -1.28635e-09 4.56667e-09 2.11725e-10 10.2786 0.731801 0.0259123 -1.28637e-09 4.56668e-09 2.11726e-10 2.22167 -0.733487 -0.20892 -2.53108e-14 4.61149e-14 -2.13694e-15 -31.3152 5.57531 15.8762 27.8843 -40.9853 -85.7062 0.124173 -9.99733 1.41961 5.14203e-10 2.64535e-09 -7.74147e-10 8.93747e-10 4.56759e-09 -1.33471e-09 5.14201e-10 2.64533e-09 -7.74141e-10 -7.73091 5.47488 -0.417314 5.14208e-10 2.64534e-09 -7.74147e-10 -2.90554 0.965183 -0.102902 5.14204e-10 2.64535e-09 -7.74151e-10 -10.2786 0.731801 -0.0259123 5.14203e-10 2.64535e-09 -7.74157e-10 -2.22167 -0.733487 0.20892 -2.03217e-16 0.0 -3.88251e-19 1.61942 -5.80975 5.33798 -0.195899 27.0611 -0.0727382 8.2374 21.8632 -26.0601 2.03217e-16 0.0 3.88251e-19 -0.456342 -1.52804 3.66979 0.124714 18.1377 0.157376 -6.10747 25.2672 17.4029
